<svg id="visual" viewBox="0 0 900 450" width="900" height="450" xmlns="http://www.w3.org/2000/svg" xmlns:xlink="http://www.w3.org/1999/xlink" version="1.1"><rect width="900" height="450" fill="#444444"></rect><g><g transform="translate(449 232)"><path d="M75.1 -85.7C94.7 -73.1 105.9 -46.9 110.9 -19.5C115.9 8 114.5 36.6 102.3 60.4C90.2 84.1 67.2 102.9 43.8 104.6C20.4 106.3 -3.6 90.9 -24.4 78.4C-45.3 65.9 -63.1 56.3 -75.7 40.7C-88.2 25.1 -95.6 3.5 -90.1 -13.9C-84.7 -31.2 -66.4 -44.2 -49.2 -57.2C-32 -70.1 -16 -83 5.9 -90C27.8 -97 55.6 -98.2 75.1 -85.7Z" fill="#171717"></path></g><g transform="translate(751 289)"><path d="M65.6 -75.8C80.4 -65.8 84.5 -40.7 86.8 -16.9C89.1 6.9 89.4 29.4 81.6 51C73.7 72.6 57.6 93.3 37.4 99C17.2 104.8 -7.1 95.5 -24.5 82.6C-42 69.7 -52.5 53.1 -64.3 35.7C-76 18.3 -89 0.2 -91.1 -21C-93.3 -42.2 -84.6 -66.4 -67.7 -76.1C-50.7 -85.7 -25.3 -80.9 0 -80.9C25.4 -81 50.8 -85.9 65.6 -75.8Z" fill="#171717"></path></g><g transform="translate(141 302)"><path d="M33.6 -46.1C41.9 -33 46 -20.9 47.4 -8.9C48.9 3.1 47.7 14.9 42.9 26.1C38 37.2 29.6 47.7 17.4 55.4C5.2 63 -10.7 68 -26.9 65.7C-43.1 63.3 -59.6 53.6 -65.1 39.7C-70.7 25.8 -65.3 7.6 -61.8 -10.7C-58.4 -29 -56.8 -47.5 -46.9 -60.2C-36.9 -72.9 -18.4 -79.9 -2.9 -76.5C12.6 -73 25.3 -59.1 33.6 -46.1Z" fill="#171717"></path></g></g></svg>