<svg id="visual" viewBox="0 0 900 450" width="900" height="450" xmlns="http://www.w3.org/2000/svg" xmlns:xlink="http://www.w3.org/1999/xlink" version="1.1"><rect width="900" height="450" fill="#EDEDED"></rect><g><g transform="translate(417 140)"><path d="M59.9 -67C81.8 -52.9 106.8 -38.1 110.3 -19.3C113.8 -0.5 95.8 22.2 80.8 45.1C65.8 68 53.6 91 34.5 100.5C15.3 110 -10.9 105.9 -30.6 94.3C-50.3 82.7 -63.5 63.5 -75.6 43.2C-87.8 23 -99 1.8 -95.6 -16.8C-92.2 -35.3 -74.2 -51.2 -55.9 -65.9C-37.5 -80.6 -18.7 -94.1 0.1 -94.2C19 -94.4 37.9 -81.1 59.9 -67Z" fill="#C4B6B6"></path></g><g transform="translate(719 201)"><path d="M39.5 -51.6C47.8 -40.2 48.6 -24.5 49.8 -9.9C51 4.6 52.6 17.9 47.2 27.1C41.7 36.3 29.3 41.4 15.6 49.2C1.8 57 -13.3 67.6 -27.4 66.3C-41.4 65.1 -54.5 52 -64.3 36.4C-74.1 20.8 -80.8 2.7 -79.9 -16.2C-79.1 -35 -70.7 -54.6 -56.1 -64.9C-41.5 -75.2 -20.8 -76.1 -2.6 -73.1C15.7 -70 31.3 -63 39.5 -51.6Z" fill="#C4B6B6"></path></g><g transform="translate(150 185)"><path d="M27.6 -31.2C36.2 -25.7 43.8 -17.4 46.5 -7.4C49.2 2.6 47 14.2 41.7 24.8C36.5 35.4 28.1 44.9 17 50.6C5.9 56.3 -8 58.3 -19.3 53.9C-30.7 49.4 -39.4 38.6 -47.8 26.4C-56.2 14.3 -64.4 0.7 -62.7 -11.4C-60.9 -23.5 -49.4 -34.3 -37.3 -39.2C-25.2 -44.1 -12.6 -43.1 -1.5 -41.3C9.5 -39.4 19 -36.7 27.6 -31.2Z" fill="#C4B6B6"></path></g></g></svg>