<svg id="visual" viewBox="0 0 900 450" width="900" height="450" xmlns="http://www.w3.org/2000/svg" xmlns:xlink="http://www.w3.org/1999/xlink" version="1.1"><g transform="translate(924.4299221733412 388.9430382911061)"><path d="M303 -482.1C408.6 -463.8 521.3 -414.9 580 -329.4C638.6 -244 643.3 -122 574.9 -39.5C506.5 43 365 86 332 215.9C299 345.8 374.5 562.6 337.2 603.8C300 644.9 150 510.5 4.2 503.3C-141.7 496 -283.3 616.1 -286.5 555.2C-289.7 494.4 -154.4 252.7 -230.4 130C-306.4 7.3 -593.7 3.7 -658.8 -37.6C-723.9 -78.8 -566.8 -157.7 -419.9 -157.7C-273.1 -157.7 -136.5 -78.8 -68.3 -118.8C0 -158.7 0 -317.3 49.3 -402.8C98.7 -488.2 197.3 -500.5 303 -482.1" fill="none" stroke="#171717" stroke-width="6"></path></g></svg>