<svg id="visual" viewBox="0 0 960 150" width="960" height="150" xmlns="http://www.w3.org/2000/svg" xmlns:xlink="http://www.w3.org/1999/xlink" version="1.1"><rect x="0" y="0" width="960" height="150" fill="#EDEDED"></rect><path d="M0 119L22.8 114.2C45.7 109.3 91.3 99.7 137 94C182.7 88.3 228.3 86.7 274 87C319.7 87.3 365.3 89.7 411.2 95.2C457 100.7 503 109.3 548.8 108.2C594.7 107 640.3 96 686 90.7C731.7 85.3 777.3 85.7 823 84.3C868.7 83 914.3 80 937.2 78.5L960 77L960 0L937.2 0C914.3 0 868.7 0 823 0C777.3 0 731.7 0 686 0C640.3 0 594.7 0 548.8 0C503 0 457 0 411.2 0C365.3 0 319.7 0 274 0C228.3 0 182.7 0 137 0C91.3 0 45.7 0 22.8 0L0 0Z" fill="#ededed"></path><path d="M0 75L22.8 78.3C45.7 81.7 91.3 88.3 137 91.5C182.7 94.7 228.3 94.3 274 91.8C319.7 89.3 365.3 84.7 411.2 84.7C457 84.7 503 89.3 548.8 88C594.7 86.7 640.3 79.3 686 76C731.7 72.7 777.3 73.3 823 72.8C868.7 72.3 914.3 70.7 937.2 69.8L960 69L960 0L937.2 0C914.3 0 868.7 0 823 0C777.3 0 731.7 0 686 0C640.3 0 594.7 0 548.8 0C503 0 457 0 411.2 0C365.3 0 319.7 0 274 0C228.3 0 182.7 0 137 0C91.3 0 45.7 0 22.8 0L0 0Z" fill="#c8c8c8"></path><path d="M0 55L22.8 59.5C45.7 64 91.3 73 137 73C182.7 73 228.3 64 274 63.3C319.7 62.7 365.3 70.3 411.2 70.8C457 71.3 503 64.7 548.8 60.2C594.7 55.7 640.3 53.3 686 58C731.7 62.7 777.3 74.3 823 80.2C868.7 86 914.3 86 937.2 86L960 86L960 0L937.2 0C914.3 0 868.7 0 823 0C777.3 0 731.7 0 686 0C640.3 0 594.7 0 548.8 0C503 0 457 0 411.2 0C365.3 0 319.7 0 274 0C228.3 0 182.7 0 137 0C91.3 0 45.7 0 22.8 0L0 0Z" fill="#a5a5a5"></path><path d="M0 40L22.8 44.3C45.7 48.7 91.3 57.3 137 60.2C182.7 63 228.3 60 274 59.3C319.7 58.7 365.3 60.3 411.2 59.3C457 58.3 503 54.7 548.8 54.7C594.7 54.7 640.3 58.3 686 58C731.7 57.7 777.3 53.3 823 49.7C868.7 46 914.3 43 937.2 41.5L960 40L960 0L937.2 0C914.3 0 868.7 0 823 0C777.3 0 731.7 0 686 0C640.3 0 594.7 0 548.8 0C503 0 457 0 411.2 0C365.3 0 319.7 0 274 0C228.3 0 182.7 0 137 0C91.3 0 45.7 0 22.8 0L0 0Z" fill="#838383"></path><path d="M0 33L22.8 33.3C45.7 33.7 91.3 34.3 137 33.3C182.7 32.3 228.3 29.7 274 30.3C319.7 31 365.3 35 411.2 38.5C457 42 503 45 548.8 42.8C594.7 40.7 640.3 33.3 686 31.7C731.7 30 777.3 34 823 37.2C868.7 40.3 914.3 42.7 937.2 43.8L960 45L960 0L937.2 0C914.3 0 868.7 0 823 0C777.3 0 731.7 0 686 0C640.3 0 594.7 0 548.8 0C503 0 457 0 411.2 0C365.3 0 319.7 0 274 0C228.3 0 182.7 0 137 0C91.3 0 45.7 0 22.8 0L0 0Z" fill="#636363"></path><path d="M0 26L22.8 26.7C45.7 27.3 91.3 28.7 137 29.5C182.7 30.3 228.3 30.7 274 27.7C319.7 24.7 365.3 18.3 411.2 17.5C457 16.7 503 21.3 548.8 23.8C594.7 26.3 640.3 26.7 686 25.3C731.7 24 777.3 21 823 19.5C868.7 18 914.3 18 937.2 18L960 18L960 0L937.2 0C914.3 0 868.7 0 823 0C777.3 0 731.7 0 686 0C640.3 0 594.7 0 548.8 0C503 0 457 0 411.2 0C365.3 0 319.7 0 274 0C228.3 0 182.7 0 137 0C91.3 0 45.7 0 22.8 0L0 0Z" fill="#444444"></path></svg>