<svg id="visual" viewBox="0 0 900 450" width="900" height="450" xmlns="http://www.w3.org/2000/svg" xmlns:xlink="http://www.w3.org/1999/xlink" version="1.1"><g transform="translate(55.57754924886888 -134.83075663884)"><path d="M76.4 -132.7C113.5 -111 168 -119.7 270 -102.7C372 -85.7 521.5 -42.8 521.2 -0.2C520.9 42.5 370.9 85 306.2 166.7C241.6 248.4 262.3 369.3 225.5 348C188.7 326.8 94.3 163.4 -4.3 170.8C-102.8 178.1 -205.7 356.2 -335.6 431.2C-465.5 506.2 -622.4 478.1 -631.9 389.1C-641.3 300 -503.1 150 -414.1 51.4C-325 -47.2 -285.1 -94.3 -232.9 -109.3C-180.7 -124.4 -116.4 -107.2 -75.5 -126.8C-34.7 -146.4 -17.3 -202.7 1.2 -204.7C19.7 -206.7 39.3 -154.5 76.4 -132.7" fill="none" stroke="#C4B6B6" stroke-width="6"></path></g></svg>